<mxfile host="app.diagrams.net" modified="2024-05-29T08:50:15.751Z" agent="Mozilla/5.0 (Windows NT 10.0; Win64; x64) AppleWebKit/537.36 (KHTML, like Gecko) Chrome/125.0.0.0 Safari/537.36" etag="t8ZDzY_CWth_3Qr2jMpe" version="24.4.2" type="github">
  <diagram id="R2lEEEUBdFMjLlhIrx00" name="Page-1">
    <mxGraphModel dx="1434" dy="772" grid="1" gridSize="10" guides="1" tooltips="1" connect="1" arrows="1" fold="1" page="1" pageScale="1" pageWidth="850" pageHeight="1100" background="#000412" math="0" shadow="0" extFonts="Permanent Marker^https://fonts.googleapis.com/css?family=Permanent+Marker">
      <root>
        <mxCell id="0" />
        <mxCell id="1" parent="0" />
        <mxCell id="RE-kjBkft8GJSgKy4H_t-1" value="" style="image;html=1;image=img/lib/clip_art/general/Full_Folder_128x128.png" vertex="1" parent="1">
          <mxGeometry x="40" y="95" width="60" height="60" as="geometry" />
        </mxCell>
        <mxCell id="RE-kjBkft8GJSgKy4H_t-5" value="" style="shape=curlyBracket;whiteSpace=wrap;html=1;rounded=1;labelPosition=left;verticalLabelPosition=middle;align=right;verticalAlign=middle;strokeColor=#FFFFFF;" vertex="1" parent="1">
          <mxGeometry x="110" y="60" width="20" height="130" as="geometry" />
        </mxCell>
        <mxCell id="RE-kjBkft8GJSgKy4H_t-8" value="通用报表" style="rounded=1;whiteSpace=wrap;html=1;strokeColor=#B3B3B3;arcSize=20;absoluteArcSize=1;" vertex="1" parent="1">
          <mxGeometry x="150" y="50" width="80" height="30" as="geometry" />
        </mxCell>
        <mxCell id="RE-kjBkft8GJSgKy4H_t-10" value="A公司报表" style="rounded=1;whiteSpace=wrap;html=1;strokeColor=#B3B3B3;arcSize=20;absoluteArcSize=1;" vertex="1" parent="1">
          <mxGeometry x="150" y="90" width="80" height="30" as="geometry" />
        </mxCell>
        <mxCell id="RE-kjBkft8GJSgKy4H_t-11" value="B公司报表" style="rounded=1;whiteSpace=wrap;html=1;strokeColor=#B3B3B3;arcSize=20;absoluteArcSize=1;" vertex="1" parent="1">
          <mxGeometry x="150" y="130" width="80" height="30" as="geometry" />
        </mxCell>
        <mxCell id="RE-kjBkft8GJSgKy4H_t-12" value="......" style="rounded=1;whiteSpace=wrap;html=1;strokeColor=#B3B3B3;arcSize=20;absoluteArcSize=1;" vertex="1" parent="1">
          <mxGeometry x="150" y="170" width="80" height="30" as="geometry" />
        </mxCell>
      </root>
    </mxGraphModel>
  </diagram>
</mxfile>
